Input #0, mov,mp4,m4a,3gp,3g2,mj2, from '/home/hbattu/projects/huberman-gpt/huberman-audio/mp3/tmpcw2i6lju.mp4':
  Metadata:
    major_brand     : dash
    minor_version   : 0
    compatible_brands: iso6mp41
    creation_time   : 2023-03-19T16:02:15.000000Z
  Duration: 02:22:22.76, start: 0.000000, bitrate: 129 kb/s
    Stream #0:0(eng): Audio: aac (LC) (mp4a / 0x6134706D), 44100 Hz, stereo, fltp, 0 kb/s (default)
    Metadata:
      creation_time   : 2023-03-19T16:02:15.000000Z
      handler_name    : ISO Media file produced by Google Inc.
Stream mapping:
  Stream #0:0 -> #0:0 (aac (native) -> mp3 (libmp3lame))
Press [q] to stop, [?] for help
[graph_0_in_0_0 @ 0x55fe70b92400] tb:1/44100 samplefmt:fltp samplerate:44100 chlayout:0x3
Output #0, mp3, to '../huberman-audio/mp3/at37Y8rKDlA.mp3':
  Metadata:
    major_brand     : dash
    minor_version   : 0
    compatible_brands: iso6mp41
    TSSE            : Lavf58.29.100
    Stream #0:0(eng): Audio: mp3 (libmp3lame), 44100 Hz, stereo, fltp, delay 1105 (default)
    Metadata:
      creation_time   : 2023-03-19T16:02:15.000000Z
      handler_name    : ISO Media file produced by Google Inc.
      encoder         : Lavc58.54.100 libmp3lame
No more output streams to write to, finishing.
size=  133482kB time=02:22:22.77 bitrate= 128.0kbits/s speed=96.1x    
[AVIOContext @ 0x55fe70b66900] Statistics: 0 seeks, 178 writeouts
video:0kB audio:133481kB subtitle:0kB other streams:0kB global headers:0kB muxing overhead: 0.000253%
Input file #0 (/home/hbattu/projects/huberman-gpt/huberman-audio/mp3/tmpcw2i6lju.mp4):
  Input stream #0:0 (audio): 367906 packets read (136684196 bytes); 367906 frames decoded (376735744 samples); 
  Total: 367906 packets (136684196 bytes) demuxed
Output file #0 (../huberman-audio/mp3/at37Y8rKDlA.mp3):
  Output stream #0:0 (audio): 327028 frames encoded (376735744 samples); 327029 packets muxed (136684773 bytes); 
  Total: 327029 packets (136684773 bytes) muxed
[AVIOContext @ 0x55fe70b96800] Statistics: 2 seeks, 523 writeouts
[AVIOContext @ 0x55fe70b6f880] Statistics: 138255780 bytes read, 0 seeks
